# xmcd CD database file
#
# Track frame offsets:
#	150
#	11577
#	36995
#	50915
#	64227
#	80317
#	95755
#	112897
#	127965
#	138295
#	155440
#	170750
#
# Disc length: 2504 seconds
#
# Revision: 12
# Processed by: cddbd v1.5.2PL0 Copyright (c) Steve Scherf et al.
# Submitted via: CDex 2.20
#
DISCID=a109c60c
DTITLE=Leonard Cohen - So Long, Marianne
DYEAR=1989
DGENRE=Rock
TTITLE0=Who By Fire
TTITLE1=So Long, Marianne
TTITLE2=Chelsea Hotel #2
TTITLE3=Lady Midnight
TTITLE4=Sisters Of Mercy
TTITLE5=Bird On The Wire
TTITLE6=Suzanne
TTITLE7=Lover Lover Lover
TTITLE8=Winter Lady
TTITLE9=Tonight Will Be Fine
TTITLE10=The Partisan
TTITLE11=Diamonds In The Mine
EXTD=All songs by Leonard Cohen YEAR: 1989
EXTT0=
EXTT1=
EXTT2=
EXTT3=
EXTT4=
EXTT5=
EXTT6=
EXTT7=
EXTT8=
EXTT9=
EXTT10=
EXTT11=
PLAYORDER=
